<?xml version="1.0" standalone="no"?>
<!DOCTYPE svg PUBLIC "-//W3C//DTD SVG 20010904//EN"
 "http://www.w3.org/TR/2001/REC-SVG-20010904/DTD/svg10.dtd">
<svg version="1.0" xmlns="http://www.w3.org/2000/svg"
 width="300.000000pt" height="300.000000pt" viewBox="0 0 300.000000 300.000000"
 preserveAspectRatio="xMidYMid meet">
<metadata>
Created by potrace 1.11, written by Peter Selinger 2001-2013
</metadata>
<g transform="translate(0.000000,300.000000) scale(0.100000,-0.100000)"
fill="#000000" stroke="none">
<path d="M10 1500 l0 -1500 1495 0 1495 0 0 1500 0 1500 -1495 0 -1495 0 0
-1500z m1348 523 l-3 -108 -327 -3 -328 -2 0 -125 0 -125 308 -2 307 -3 0
-105 0 -105 -307 -3 -308 -2 0 -160 0 -160 340 0 340 0 0 -105 0 -105 -465 0
-465 0 0 610 0 610 455 0 456 0 -3 -107z m927 96 c158 -29 265 -150 265 -300
0 -89 -43 -178 -112 -228 l-46 -35 47 -22 c101 -46 161 -136 169 -250 7 -116
-33 -213 -122 -291 -85 -74 -101 -77 -528 -81 l-378 -3 0 604 c0 332 3 607 7
610 11 12 635 8 698 -4z"/>
<path d="M1840 1780 l0 -130 163 0 c181 0 227 9 269 50 53 53 31 167 -37 196
-25 10 -81 14 -215 14 l-180 0 0 -130z"/>
<path d="M1840 1276 l0 -156 148 0 c81 1 178 5 216 10 60 7 74 13 105 44 32
33 35 40 36 95 0 71 -21 106 -81 136 -34 17 -65 20 -231 23 l-193 4 0 -156z"/>
</g>
</svg>
